<?xml version="1.0" encoding="utf-8"?>
<!-- Generator: Adobe Illustrator 22.0.0, SVG Export Plug-In . SVG Version: 6.00 Build 0)  -->
<svg version="1.1" id="Layer_1" xmlns="http://www.w3.org/2000/svg" xmlns:xlink="http://www.w3.org/1999/xlink" x="0px" y="0px"
	 viewBox="0 0 108 26" style="enable-background:new 0 0 108 26;" xml:space="preserve">
<style type="text/css">
	.st0{fill:#D6D6D6;}
	.st1{fill:url(#SVGID_1_);}
	.st2{fill:url(#SVGID_2_);}
	.st3{fill:url(#SVGID_3_);}
	.st4{fill:none;}
	.st5{fill:#CCCCCC;}
	.st6{font-family:'MyriadPro-Regular';}
	.st7{font-size:12px;}
</style>
<path class="st0" d="M2.5,14.2c0-0.4,0-0.9,0-1.3c0,0,0,0,0-0.1c0-0.5,0.1-1,0.2-1.6C3.4,8.1,5,5.7,7.6,3.9C9.2,2.8,11,2.2,12.9,2
	C13,2,13.2,2,13.4,2c0.5,0,0.9,0,1.4,0c0,0,0.1,0,0.1,0c0.4,0,0.9,0.1,1.3,0.2c2.6,0.5,4.8,1.8,6.6,3.8c1.6,1.9,2.6,4.1,2.8,6.6
	c0,0.1,0,0.2,0,0.2c0,0.5,0,0.9,0,1.4c0,0,0,0.1,0,0.1c0,0.4-0.1,0.7-0.1,1.1c-0.4,2.1-1.2,4-2.6,5.7c-2,2.3-4.5,3.6-7.5,4
	c-0.2,0-0.3,0-0.5,0.1c-0.5,0-0.9,0-1.4,0c0,0-0.1,0-0.1,0c-0.5,0-1-0.1-1.5-0.2c-2.8-0.6-5.1-2-6.9-4.2c-1.4-1.7-2.1-3.7-2.4-5.9
	C2.6,14.5,2.6,14.3,2.5,14.2z M14.1,3.5c-5.5,0-10,4.5-10,10c0,5.5,4.5,10,10,10c5.5,0,10-4.5,10-10C24,8,19.6,3.5,14.1,3.5z"/>
<path class="st0" d="M11.7,12.7c-0.1,0-0.1,0-0.1,0c-0.9,0-1.9,0-2.8,0c-0.1,0-0.1,0-0.2,0.1c-0.1,0.1-0.1,0.3-0.2,0.5
	c0.1,0,0.1,0,0.2,0c1.2,0,2.3,0,3.5,0c0.1,0,0.2,0,0.2,0.1c0,0,0,0,0,0.1c0,0.1,0,0.2-0.1,0.3c-0.1,0.1-0.2,0-0.3,0
	c-1.1,0-2.2,0-3.4,0c-0.1,0-0.1,0-0.1,0.1c0,0.1,0.1,0.2,0.1,0.3c0,0.1,0.1,0.1,0.2,0.1c1,0,1.9,0,2.9,0c0,0,0.1,0,0.1,0
	c0,0,0,0.1-0.1,0.1c-0.1,0.1-0.2,0.2-0.4,0.2c-0.3,0.2-0.6,0.3-0.9,0.2c-0.4,0-0.8,0-1.3,0c0,0,0.1,0.1,0.1,0.1
	c0.5,0.4,1,0.6,1.5,0.9c0.6,0.3,1.1,0.5,1.6,0.9c0.8,0.5,1.3,1.2,1.5,2.2c0,0.2,0.1,0.4,0.1,0.5c0,0.3-0.2,0.6-0.5,0.6
	c-0.3,0-0.5-0.2-0.6-0.5c0-0.2,0-0.2-0.2-0.2c-1.2,0-2.3,0-3.5,0c-0.1,0-0.1,0-0.1-0.1c0-0.1,0.1-0.2,0.1-0.3c0-0.1,0.1-0.1,0.1-0.1
	c1,0,2.1,0,3.1,0c0,0,0.1,0,0.1,0c0.2,0,0.2,0,0.1-0.2c-0.2-0.4-0.2-0.4-0.6-0.4c-0.7,0-1.5,0-2.2,0c0,0,0,0-0.1,0
	C9.9,18.1,10,18,10.1,18c0.3-0.2,0.6-0.3,1-0.3c0.2,0,0.5,0,0.8,0c-0.2-0.2-0.5-0.3-0.7-0.4c-0.5-0.3-1.1-0.5-1.6-0.8
	C9,16.2,8.5,15.8,8,15.3c-0.8-0.8-1-2.1-0.4-3c0.2-0.4,0.5-0.7,0.9-1c0.1-0.1,0.2-0.2,0.3-0.3c0,0,0.1,0,0.1,0
	c0.3,0.2,0.7,0.4,1.1,0.5c-0.3,0.2-0.5,0.3-0.8,0.6c0,0,0.1,0,0.1,0c0.5,0,1.1,0,1.6,0c0,0,0.1,0,0.1,0
	C11.3,12.3,11.5,12.4,11.7,12.7z"/>
<linearGradient id="SVGID_1_" gradientUnits="userSpaceOnUse" x1="7.2731" y1="11.4622" x2="13.9778" y2="11.4622">
	<stop  offset="0" style="stop-color:#CCCCCC"/>
	<stop  offset="1" style="stop-color:#666666"/>
</linearGradient>
<path class="st1" d="M11.4,15.4c0.4-0.2,0.7-0.5,1-0.8c0.5-0.4,0.6-1.2,0.3-1.8c-0.1-0.3-0.4-0.5-0.6-0.7c-0.5-0.4-1-0.7-1.5-1
	c-0.5-0.3-1.1-0.5-1.6-0.8C8.2,9.8,7.6,9.1,7.4,8.1C7.3,7.9,7.3,7.7,7.3,7.5C7.3,7.2,7.5,7,7.8,7c0.3,0,0.5,0.2,0.6,0.5
	C8.4,8,8.6,8.3,8.9,8.7c0.3,0.4,0.8,0.7,1.3,1c0.7,0.3,1.3,0.7,1.9,1.1c0.5,0.3,0.9,0.7,1.3,1.2c0.4,0.5,0.6,1.2,0.5,1.8
	c-0.1,0.7-0.4,1.3-1,1.7c-0.2,0.1-0.3,0.3-0.5,0.4c0,0-0.1,0.1-0.1,0C12.1,15.7,11.7,15.5,11.4,15.4z"/>
<linearGradient id="SVGID_2_" gradientUnits="userSpaceOnUse" x1="9.0725" y1="8.5661" x2="13.9855" y2="8.5661">
	<stop  offset="0" style="stop-color:#CCCCCC"/>
	<stop  offset="1" style="stop-color:#666666"/>
</linearGradient>
<path class="st2" d="M11.3,9.6c0.1-0.1,0.3-0.1,0.4-0.3c-0.3,0-0.5,0-0.7,0c-0.1,0-0.3,0-0.4-0.1C10.4,9,10.2,8.9,9.9,8.7
	c0.1,0,0.1,0,0.1,0c0.7,0,1.4,0,2.1,0c0.1,0,0.1,0,0.2-0.1c0.1-0.1,0.2-0.3,0.3-0.5c-0.1,0-0.1,0-0.1,0c-1,0-2.1,0-3.1,0
	c-0.1,0-0.1,0-0.2-0.1C9.2,7.9,9.1,7.8,9.1,7.6c0,0,0.1,0,0.1,0c1.2,0,2.3,0,3.5,0c0.1,0,0.2,0,0.2-0.2c0-0.3,0.2-0.5,0.5-0.5
	c0.2,0,0.5,0.1,0.6,0.3C14,7.4,14,7.6,14,7.7c-0.1,0.9-0.6,1.6-1.2,2.2c-0.1,0.1-0.2,0.2-0.3,0.2c0,0-0.1,0-0.1,0
	C12,9.9,11.7,9.8,11.3,9.6z"/>
<linearGradient id="SVGID_3_" gradientUnits="userSpaceOnUse" x1="7.2972" y1="18.3819" x2="9.898" y2="18.3819">
	<stop  offset="0" style="stop-color:#CCCCCC"/>
	<stop  offset="1" style="stop-color:#666666"/>
</linearGradient>
<path class="st3" d="M9.9,17.3c-0.4,0.2-0.7,0.4-1,0.7c-0.3,0.4-0.4,0.8-0.5,1.3c0,0.1,0,0.2,0,0.3C8.3,19.9,8,20,7.8,20
	c-0.3,0-0.5-0.3-0.5-0.6c0-0.9,0.4-1.7,1-2.3c0.1-0.1,0.3-0.2,0.4-0.3c0,0,0.1-0.1,0.1,0C9.2,17,9.5,17.2,9.9,17.3z"/>
<path class="st0" d="M16.1,18.9c0-0.2,0-0.3,0.1-0.5c0.1-0.4,0.3-0.5,0.6-0.5c0.3,0,0.6,0.2,0.6,0.5c0.1,0.3,0.1,0.7,0,1
	c-0.1,0.4-0.4,0.6-0.8,0.5c-0.2-0.1-0.4-0.2-0.5-0.4C16.1,19.3,16.1,19.1,16.1,18.9z M17.1,19c0-0.2,0-0.3,0-0.5
	c0-0.1-0.1-0.2-0.2-0.2c-0.1,0-0.2,0.1-0.2,0.2c-0.1,0.3-0.1,0.6,0,0.9c0,0.1,0.1,0.2,0.2,0.2c0.1,0,0.2-0.1,0.2-0.2
	C17.1,19.3,17.1,19.1,17.1,19z"/>
<path class="st0" d="M19.2,8c0,0.3,0,0.5-0.1,0.7c-0.1,0.3-0.3,0.4-0.6,0.4c-0.3,0-0.5-0.2-0.6-0.4c-0.1-0.4-0.1-0.8,0-1.2
	C17.9,7.1,18.2,7,18.4,7c0.3,0,0.5,0.2,0.6,0.5c0,0.1,0.1,0.2,0.1,0.3C19.1,7.8,19.2,7.9,19.2,8z M18.2,8c0,0.2,0,0.3,0,0.5
	c0,0.1,0.1,0.2,0.2,0.2c0.1,0,0.2-0.1,0.2-0.2c0.1-0.3,0.1-0.6,0-0.9c0-0.1-0.1-0.2-0.2-0.2c-0.1,0-0.2,0.1-0.2,0.2
	C18.2,7.7,18.2,7.9,18.2,8z"/>
<path class="st0" d="M19.2,13.4c0,0.2,0,0.4-0.1,0.6c-0.1,0.3-0.3,0.4-0.6,0.4c-0.3,0-0.5-0.2-0.6-0.4c-0.1-0.4-0.1-0.8,0-1.2
	c0.1-0.3,0.4-0.5,0.7-0.5c0.3,0,0.5,0.2,0.6,0.6C19.1,13.1,19.2,13.3,19.2,13.4z M18.7,13.4c0-0.2,0-0.3,0-0.5
	c0-0.2-0.1-0.2-0.2-0.2c-0.1,0-0.2,0.1-0.2,0.2c-0.1,0.3-0.1,0.6,0,0.9c0,0.2,0.1,0.2,0.2,0.2c0.1,0,0.2-0.1,0.2-0.2
	C18.7,13.7,18.7,13.6,18.7,13.4z"/>
<path class="st0" d="M19.2,16.4c0,0.2,0,0.4-0.1,0.6c-0.1,0.3-0.3,0.4-0.6,0.4c-0.3,0-0.5-0.2-0.6-0.4c-0.1-0.4-0.1-0.8,0-1.2
	c0.1-0.3,0.3-0.5,0.6-0.5c0.3,0,0.5,0.2,0.6,0.5C19.1,16,19.2,16.2,19.2,16.4z M18.7,16.4c0-0.2,0-0.3,0-0.5c0-0.1-0.1-0.2-0.2-0.2
	c-0.1,0-0.2,0.1-0.2,0.2c-0.1,0.3-0.1,0.6,0,0.9c0,0.2,0.1,0.2,0.2,0.2c0.1,0,0.2-0.1,0.2-0.2C18.7,16.7,18.7,16.6,18.7,16.4z"/>
<path class="st0" d="M14.7,13.4c0-0.2,0-0.3,0.1-0.5c0.1-0.3,0.3-0.5,0.6-0.5c0.3,0,0.5,0.2,0.6,0.5c0.1,0.4,0.1,0.8,0,1.1
	c-0.1,0.4-0.4,0.5-0.8,0.4c-0.2-0.1-0.4-0.2-0.4-0.4C14.7,13.8,14.7,13.6,14.7,13.4z M15.7,13.4c0-0.2,0-0.3,0-0.5
	c0-0.1-0.1-0.2-0.2-0.2c-0.1,0-0.2,0.1-0.2,0.2c-0.1,0.3-0.1,0.6,0,0.9c0,0.1,0.1,0.2,0.2,0.2c0.1,0,0.2-0.1,0.2-0.2
	C15.7,13.7,15.7,13.6,15.7,13.4z"/>
<path class="st0" d="M17.8,10.6c0-0.2,0-0.4,0.1-0.6c0.1-0.3,0.3-0.4,0.6-0.4c0.3,0,0.5,0.1,0.6,0.4c0.2,0.4,0.1,0.8,0,1.3
	c-0.1,0.3-0.3,0.4-0.6,0.4c-0.3,0-0.5-0.2-0.6-0.4c0-0.1,0-0.1-0.1-0.2C17.8,10.8,17.8,10.7,17.8,10.6z M18.2,10.6
	c0,0.2,0,0.3,0.1,0.5c0,0.1,0.1,0.2,0.2,0.2c0.1,0,0.2-0.1,0.2-0.2c0.1-0.3,0.1-0.6,0-1c0-0.1-0.1-0.2-0.2-0.2
	c-0.1,0-0.2,0.1-0.2,0.2C18.2,10.3,18.2,10.4,18.2,10.6z"/>
<path class="st0" d="M16.1,8c0,0.2,0,0.4-0.1,0.7c-0.1,0.3-0.3,0.4-0.6,0.4c-0.3,0-0.5-0.1-0.6-0.4c-0.2-0.4-0.2-0.8,0-1.3
	c0.1-0.3,0.4-0.5,0.6-0.4c0.3,0,0.5,0.2,0.6,0.6C16.1,7.7,16.1,7.9,16.1,8z M15.7,8c0-0.2,0-0.3,0-0.5c0-0.1-0.1-0.2-0.2-0.2
	c-0.1,0-0.2,0.1-0.2,0.2c-0.1,0.3-0.1,0.6,0,0.9c0,0.1,0.1,0.2,0.2,0.2c0.1,0,0.2-0.1,0.2-0.2C15.7,8.3,15.7,8.2,15.7,8z"/>
<path class="st0" d="M20.8,10.6c0,0.2,0,0.4-0.1,0.6c-0.1,0.3-0.3,0.5-0.6,0.5c-0.3,0-0.5-0.2-0.6-0.5c-0.1-0.4-0.1-0.7,0-1.1
	c0.1-0.4,0.5-0.6,0.8-0.5c0.2,0.1,0.3,0.2,0.4,0.4C20.8,10.2,20.8,10.4,20.8,10.6z M20.4,10.6c0-0.2,0-0.3-0.1-0.5
	c0-0.1-0.1-0.2-0.2-0.2c-0.1,0-0.2,0.1-0.2,0.2c-0.1,0.2-0.1,0.4,0,0.7c0,0.1,0,0.2,0.1,0.3c0,0.1,0.1,0.2,0.2,0.2
	c0.1,0,0.2-0.1,0.2-0.1c0,0,0-0.1,0-0.1C20.4,10.9,20.4,10.7,20.4,10.6z"/>
<path class="st0" d="M17.5,10.5c0,0.2,0,0.5-0.1,0.6c-0.1,0.3-0.3,0.4-0.6,0.4c-0.3,0-0.5-0.2-0.6-0.4c-0.1-0.4-0.1-0.8,0-1.2
	c0.1-0.3,0.3-0.5,0.6-0.5c0.3,0,0.5,0.1,0.6,0.4c0,0.1,0,0.1,0.1,0.2C17.5,10.3,17.5,10.5,17.5,10.5z M17.1,10.6c0-0.2,0-0.3,0-0.5
	c0-0.1-0.1-0.2-0.2-0.2c-0.1,0-0.2,0.1-0.2,0.2c-0.1,0.3-0.1,0.6,0,0.9c0,0.1,0.1,0.2,0.2,0.2c0.1,0,0.2-0.1,0.2-0.2
	C17.1,10.9,17.1,10.7,17.1,10.6z"/>
<path class="st0" d="M20.2,16.1c-0.1,0.1-0.2,0.1-0.3,0.2c-0.1,0-0.1,0-0.1-0.1c0-0.1,0-0.1,0-0.2c0-0.1,0-0.1,0.1-0.1
	c0.2-0.1,0.4-0.2,0.5-0.4c0.1-0.1,0.2-0.1,0.2,0c0.1,0,0.1,0.1,0.1,0.1c0,0.6,0,1.2,0,1.8c0,0.1,0,0.2-0.2,0.2c0,0-0.1,0-0.1,0
	c-0.1,0-0.1,0-0.1-0.1c0-0.4,0-0.7,0-1.1C20.2,16.2,20.2,16.2,20.2,16.1z"/>
<path class="st0" d="M20.2,18.6c-0.1,0.1-0.2,0.1-0.3,0.1c-0.1,0-0.1,0-0.1-0.1c0,0,0-0.1,0-0.1c0-0.1,0-0.1,0.1-0.2
	c0.2-0.1,0.3-0.2,0.5-0.4c0.1-0.1,0.2-0.1,0.3,0c0.1,0,0.1,0.1,0.1,0.1c0,0.6,0,1.2,0,1.8c0,0.1,0,0.1-0.1,0.1c-0.3,0-0.3,0-0.3-0.3
	c0-0.3,0-0.7,0-1C20.2,18.7,20.2,18.7,20.2,18.6z"/>
<path class="st0" d="M20.2,7.7c-0.1,0.1-0.2,0.1-0.3,0.2c-0.1,0-0.1,0-0.1-0.1c0-0.1,0-0.1,0-0.2c0-0.1,0-0.1,0.1-0.1
	C20,7.3,20.1,7.2,20.3,7c0.1-0.1,0.2-0.1,0.3,0c0.1,0,0.1,0.1,0.1,0.1c0,0.6,0,1.2,0,1.8c0,0.1,0,0.1-0.2,0.2c-0.3,0-0.3,0-0.3-0.2
	C20.2,8.4,20.2,8,20.2,7.7z"/>
<path class="st0" d="M20.2,13.1c-0.1,0.1-0.2,0.1-0.3,0.2c0,0-0.1,0-0.1,0c-0.1-0.1,0-0.3,0-0.4c0.2-0.1,0.4-0.2,0.5-0.4
	c0.1-0.1,0.2-0.1,0.2,0c0.1,0,0.1,0.1,0.1,0.1c0,0.6,0,1.2,0,1.8c0,0.1,0,0.2-0.2,0.2c-0.3,0-0.3,0-0.3-0.2
	C20.2,13.8,20.2,13.4,20.2,13.1z"/>
<path class="st0" d="M18.9,19c0,0.3,0,0.6,0,0.9c0,0.1,0,0.1-0.1,0.1c-0.3,0-0.3,0-0.3-0.3c0-0.3,0-0.7,0-1c0-0.1,0-0.1-0.1,0
	c-0.1,0-0.2,0.1-0.2,0.1c-0.1,0-0.1,0-0.1-0.1c0,0,0,0,0,0c0-0.2,0-0.3,0.2-0.3c0.2-0.1,0.3-0.2,0.4-0.3c0.1-0.1,0.2-0.1,0.3-0.1
	c0.1,0,0.1,0.1,0.1,0.1C18.9,18.4,18.9,18.7,18.9,19z"/>
<path class="st0" d="M16.9,7.7c-0.1,0.1-0.2,0.1-0.3,0.2c-0.1,0-0.1,0-0.1-0.1c0,0,0,0,0,0c0-0.1,0-0.2,0.2-0.3
	c0.2-0.1,0.3-0.2,0.4-0.3C17,6.9,17.1,7,17.2,7c0.1,0,0.1,0.1,0.1,0.2c0,0.6,0,1.2,0,1.7c0,0.1,0,0.2-0.2,0.2c0,0-0.1,0-0.1,0
	c-0.1,0-0.2,0-0.2-0.2C16.9,8.5,16.9,8.1,16.9,7.7z"/>
<path class="st0" d="M16.9,13c-0.1,0.1-0.2,0.1-0.3,0.2c-0.1,0-0.1,0-0.1-0.1c0-0.1,0-0.1,0-0.2c0-0.1,0-0.1,0.1-0.1
	c0.2-0.1,0.4-0.2,0.5-0.4c0.1-0.1,0.2-0.1,0.2-0.1c0.1,0,0.1,0.1,0.1,0.1c0,0.6,0,1.2,0,1.8c0,0.1,0,0.2-0.1,0.2
	c-0.2,0-0.2,0-0.2-0.2C16.9,13.8,16.9,13.4,16.9,13z"/>
<path class="st0" d="M15.4,18.6c-0.1,0.1-0.2,0.1-0.3,0.2c-0.1,0-0.1,0-0.1-0.1c0,0,0,0,0,0c0-0.1,0-0.2,0.2-0.3
	c0.2-0.1,0.3-0.2,0.4-0.4c0.1-0.1,0.2-0.1,0.2-0.1c0.1,0,0.1,0.1,0.1,0.1c0,0.6,0,1.2,0,1.8c0,0.1,0,0.2-0.2,0.2
	c-0.2,0-0.2,0-0.2-0.2C15.4,19.4,15.4,19,15.4,18.6z"/>
<path class="st0" d="M16.9,16.1c-0.1,0.1-0.2,0.1-0.3,0.2c-0.1,0-0.1,0-0.1-0.1c0,0,0-0.1,0-0.1c0-0.1,0-0.2,0.1-0.2
	c0.2-0.1,0.3-0.2,0.4-0.4c0.1-0.1,0.2-0.1,0.3-0.1c0.1,0,0.1,0.1,0.1,0.1c0,0.6,0,1.2,0,1.7c0,0.2,0,0.2-0.2,0.2c0,0-0.1,0-0.1,0
	c-0.1,0-0.1,0-0.1-0.1c0-0.4,0-0.8,0-1.1C16.9,16.2,16.9,16.1,16.9,16.1z"/>
<path class="st0" d="M15.4,16.1c-0.1,0.1-0.2,0.1-0.3,0.2c-0.1,0-0.1,0-0.1-0.1c0,0,0-0.1,0-0.1c0-0.1,0-0.2,0.1-0.2
	c0.2-0.1,0.3-0.2,0.4-0.4c0.1-0.1,0.2-0.1,0.3-0.1c0.1,0,0.1,0.1,0.1,0.1c0,0.6,0,1.2,0,1.7c0,0.2,0,0.2-0.2,0.2
	c-0.2,0-0.2,0-0.2-0.2C15.4,16.9,15.4,16.5,15.4,16.1z"/>
<path class="st0" d="M15.8,10.6c0,0.3,0,0.6,0,0.9c0,0.1,0,0.1-0.1,0.1c-0.3,0-0.3,0-0.3-0.3c0-0.3,0-0.7,0-1c0-0.1,0-0.1-0.1-0.1
	c-0.1,0-0.2,0.1-0.2,0.1c-0.1,0-0.1,0-0.1-0.1c0,0,0-0.1,0-0.1c0-0.1,0-0.2,0.1-0.3c0.2-0.1,0.3-0.2,0.4-0.4
	c0.1-0.1,0.2-0.1,0.2-0.1c0.1,0,0.1,0.1,0.1,0.1C15.8,10,15.8,10.3,15.8,10.6z"/>
<rect x="28" y="8.8" class="st4" width="79.5" height="17.2"/>
<text transform="matrix(1 0 0 1 27.9999 17.3125)" class="st5 st6 st7">GenomCode</text>
</svg>
