<?xml version="1.0" encoding="utf-8"?>
<!-- Generator: Adobe Illustrator 22.0.0, SVG Export Plug-In . SVG Version: 6.00 Build 0)  -->
<svg version="1.1" id="Layer_1" xmlns="http://www.w3.org/2000/svg" xmlns:xlink="http://www.w3.org/1999/xlink" x="0px" y="0px"
	 viewBox="0 0 108.5 91" style="enable-background:new 0 0 108.5 91;" xml:space="preserve">
<style type="text/css">
	.st0{fill:#808080;}
	.st1{fill:url(#SVGID_1_);}
	.st2{fill:url(#SVGID_2_);}
	.st3{fill:url(#SVGID_3_);}
	.st4{fill:none;}
	.st5{font-family:'MyriadPro-Regular';}
	.st6{font-size:12px;}
</style>
<path class="st0" d="M17.6,41.5c0-1.4,0-2.9,0-4.3c0.1-0.1,0.1-0.2,0.1-0.2c0.1-1.7,0.3-3.4,0.7-5.1c2.1-10,7.5-18,15.9-23.8
	c5.1-3.5,10.9-5.6,17.1-6.2c0.6-0.1,1.2,0,1.8-0.2c1.5,0,3,0,4.4,0c0.1,0.1,0.2,0.1,0.3,0.1c1.4,0.1,2.8,0.3,4.2,0.5
	C70.7,4,77.9,8.1,83.6,14.7C89,20.9,92,28,92.7,36.2c0,0.2,0,0.5,0.1,0.7c0,1.5,0,3,0,4.5c-0.1,0.1-0.1,0.2-0.1,0.3
	c-0.1,1.2-0.2,2.4-0.4,3.5c-1.1,7-4,13.2-8.6,18.5C77.2,71.3,69,75.6,59.1,76.7c-0.5,0.1-1,0-1.5,0.2c-1.5,0-3,0-4.5,0
	c-0.1-0.1-0.2-0.1-0.3-0.1c-1.6-0.1-3.2-0.3-4.8-0.6c-9.2-1.9-16.7-6.5-22.4-13.8c-4.4-5.6-7-12.1-7.8-19.2
	C17.8,42.6,17.8,42,17.6,41.5z M55.2,6.7c-18,0-32.6,14.6-32.6,32.6c0,18,14.5,32.6,32.6,32.7c18,0,32.6-14.6,32.7-32.6
	C87.9,21.3,73.3,6.7,55.2,6.7z"/>
<path class="st0" d="M47.6,36.6c-0.2,0-0.3,0-0.4,0c-3.1,0-6.2,0-9.3,0c-0.3,0-0.4,0.1-0.6,0.3c-0.3,0.5-0.4,0.9-0.5,1.5
	c0.2,0,0.3,0,0.5,0c3.8,0,7.6,0,11.4,0c0.4,0,0.5,0.1,0.5,0.5c0,0.1,0,0.1,0,0.2c0,0.4,0,0.8-0.2,1.1c-0.2,0.2-0.6,0.1-0.9,0.1
	c-3.7,0-7.3,0-11,0c-0.3,0-0.4,0.1-0.3,0.4c0.1,0.4,0.3,0.8,0.4,1.1c0.1,0.2,0.3,0.3,0.5,0.3c3.1,0,6.3,0,9.4,0c0.1,0,0.3,0,0.4,0
	c0,0.1-0.1,0.2-0.2,0.2c-0.4,0.3-0.8,0.5-1.2,0.8c-0.9,0.7-1.8,0.8-2.9,0.8c-1.4-0.1-2.7,0-4.1,0c0,0.2,0.2,0.2,0.3,0.3
	c1.5,1.2,3.2,2,4.9,2.8c1.8,0.9,3.7,1.7,5.4,2.9c2.5,1.8,4.3,4,4.8,7.1c0.1,0.6,0.2,1.2,0.2,1.8c0,1-0.7,1.8-1.7,1.9
	c-1,0.1-1.8-0.6-1.9-1.6c-0.1-0.5-0.1-0.5-0.6-0.5c-3.8,0-7.6,0-11.4,0c-0.3,0-0.5,0-0.3-0.4c0.1-0.4,0.2-0.7,0.3-1.1
	c0.1-0.3,0.2-0.3,0.5-0.3c3.4,0,6.7,0,10.1,0c0.2,0,0.3,0,0.5,0c0.6,0,0.6,0,0.4-0.5c-0.5-1.3-0.5-1.3-1.9-1.3c-2.4,0-4.9,0-7.3,0
	c-0.1,0-0.1,0-0.3,0c0.4-0.4,0.9-0.6,1.2-0.9c0.9-0.7,1.9-1,3.1-0.9c0.8,0.1,1.6,0,2.6,0c-0.8-0.6-1.5-1-2.2-1.4
	c-1.7-0.9-3.5-1.7-5.2-2.6c-2-1-3.7-2.3-5.3-3.9c-2.6-2.6-3.2-6.8-1.4-9.9c0.7-1.2,1.8-2.2,2.8-3.1c0.4-0.3,0.8-0.6,1.1-0.9
	c0.1-0.1,0.2-0.1,0.3-0.1c1.1,0.7,2.3,1.2,3.5,1.8c-0.9,0.6-1.7,1.1-2.5,1.8c0.1,0.1,0.2,0.1,0.3,0.1c1.7,0,3.5,0,5.2,0
	c0.1,0,0.3,0,0.4,0.1C46.2,35.4,46.9,35.9,47.6,36.6z"/>
<linearGradient id="SVGID_1_" gradientUnits="userSpaceOnUse" x1="33.1108" y1="32.7066" x2="54.9996" y2="32.7066">
	<stop  offset="0" style="stop-color:#CCCCCC"/>
	<stop  offset="1" style="stop-color:#666666"/>
</linearGradient>
<path class="st1" d="M46.5,45.4c1.2-0.7,2.3-1.5,3.3-2.5c1.5-1.4,2.1-4,1.1-5.8c-0.5-0.9-1.2-1.6-1.9-2.2c-1.5-1.3-3.2-2.3-4.9-3.2
	C42.4,30.8,40.6,30,39,29c-2.7-1.7-4.7-4.1-5.6-7.3c-0.2-0.6-0.3-1.2-0.3-1.8c0-1,0.7-1.8,1.7-1.9c0.9-0.1,1.7,0.6,1.9,1.6
	c0.2,1.6,0.9,2.9,1.9,4.1c1.1,1.5,2.6,2.4,4.2,3.2c2.1,1,4.3,2.2,6.2,3.5c1.6,1.1,3,2.3,4.3,3.8c1.4,1.7,1.9,3.8,1.7,6
	c-0.2,2.3-1.4,4.2-3.1,5.7c-0.5,0.4-1,0.9-1.5,1.3c-0.1,0.1-0.2,0.2-0.4,0.1C48.8,46.6,47.7,46,46.5,45.4z"/>
<linearGradient id="SVGID_2_" gradientUnits="userSpaceOnUse" x1="38.9854" y1="23.2515" x2="55.0248" y2="23.2515">
	<stop  offset="0" style="stop-color:#CCCCCC"/>
	<stop  offset="1" style="stop-color:#666666"/>
</linearGradient>
<path class="st2" d="M46.3,26.5c0.5-0.3,0.9-0.5,1.4-0.9c-0.9,0-1.6,0-2.4,0c-0.4,0-0.8-0.1-1.2-0.3c-0.8-0.5-1.5-0.9-2.3-1.5
	c0.2,0,0.3,0,0.5,0c2.3,0,4.6,0,7,0c0.2,0,0.4-0.1,0.5-0.3c0.3-0.5,0.7-1,1-1.5c-0.2,0-0.3,0-0.4,0c-3.3,0-6.7,0-10,0
	c-0.3,0-0.5-0.1-0.6-0.4c-0.2-0.5-0.5-0.9-0.6-1.4c0.2-0.1,0.3,0,0.4,0c3.8,0,7.6,0,11.4,0c0.4,0,0.5-0.1,0.6-0.5
	c0.1-0.9,0.7-1.5,1.6-1.6c0.7-0.1,1.5,0.3,1.8,1c0.2,0.5,0.2,1,0.1,1.5c-0.4,2.9-1.9,5.1-4,7c-0.3,0.3-0.6,0.5-0.9,0.8
	c-0.1,0.1-0.2,0.1-0.3,0.1C48.6,27.7,47.5,27.1,46.3,26.5z"/>
<linearGradient id="SVGID_3_" gradientUnits="userSpaceOnUse" x1="33.1893" y1="55.2974" x2="41.6803" y2="55.2974">
	<stop  offset="0" style="stop-color:#CCCCCC"/>
	<stop  offset="1" style="stop-color:#666666"/>
</linearGradient>
<path class="st3" d="M41.7,51.9c-1.2,0.7-2.3,1.4-3.2,2.4c-1.1,1.2-1.5,2.6-1.7,4.1c0,0.3,0,0.6-0.1,0.9c-0.2,0.8-1.1,1.4-1.9,1.3
	c-1-0.1-1.6-0.9-1.6-1.8c0.1-2.9,1.2-5.5,3.3-7.5c0.4-0.4,0.8-0.7,1.3-1.1c0.1-0.1,0.2-0.2,0.3-0.1C39.2,50.7,40.4,51.3,41.7,51.9z"
	/>
<path class="st0" d="M62,57c0-0.5,0.1-1,0.2-1.5c0.3-1.1,1.1-1.8,2.1-1.8c1.1,0,1.8,0.6,2.1,1.8c0.3,1.1,0.3,2.2,0,3.3
	c-0.3,1.3-1.4,2-2.6,1.7c-0.8-0.2-1.2-0.7-1.5-1.4C62.1,58.4,62,57.7,62,57z M65.2,57.2c0-0.5,0-1-0.2-1.5c-0.1-0.5-0.4-0.7-0.8-0.7
	c-0.4,0-0.6,0.2-0.8,0.7c-0.3,1-0.3,2.1,0,3.1c0.1,0.4,0.4,0.7,0.8,0.7c0.4,0,0.6-0.3,0.8-0.7C65.2,58.2,65.2,57.7,65.2,57.2z"/>
<path class="st0" d="M71.9,21.4c0,0.8-0.1,1.5-0.4,2.2c-0.4,0.9-1.1,1.3-2,1.2c-0.9,0-1.6-0.5-1.9-1.4c-0.4-1.3-0.4-2.6-0.1-3.9
	c0.3-1,1.1-1.6,2-1.6c1,0,1.7,0.5,2,1.5c0.1,0.3,0.2,0.6,0.2,0.8C71.9,20.8,71.9,21.2,71.9,21.4z M68.7,21.5c0,0.5,0,1,0.2,1.5
	c0.1,0.5,0.4,0.7,0.8,0.7c0.4,0,0.7-0.2,0.8-0.7c0.3-1,0.2-2.1,0-3.1c-0.1-0.4-0.4-0.7-0.8-0.7c-0.4,0-0.6,0.2-0.7,0.7
	C68.7,20.4,68.7,20.9,68.7,21.5z"/>
<path class="st0" d="M71.9,39.2c0,0.7-0.1,1.3-0.4,2c-0.4,0.9-1.1,1.3-2,1.3c-0.9,0-1.6-0.5-1.9-1.4c-0.4-1.3-0.4-2.6,0-3.9
	c0.3-1.1,1.1-1.6,2.2-1.5c1,0.1,1.7,0.8,2,1.9C71.9,38.1,71.9,38.6,71.9,39.2z M70.6,39.1c0-0.5,0-1-0.2-1.5
	c-0.1-0.5-0.4-0.8-0.8-0.8c-0.4,0-0.6,0.2-0.8,0.7c-0.2,1-0.2,2,0,3c0.1,0.5,0.4,0.8,0.8,0.7c0.4,0,0.6-0.3,0.8-0.7
	C70.5,40,70.6,39.6,70.6,39.1z"/>
<path class="st0" d="M71.9,48.9c0,0.7-0.1,1.4-0.3,2.1c-0.4,0.9-1.1,1.3-2,1.3c-0.9,0-1.6-0.5-1.9-1.4c-0.4-1.3-0.4-2.6,0-3.9
	c0.3-1,1-1.5,2-1.5c1,0,1.7,0.5,2,1.5C71.9,47.6,71.9,48.2,71.9,48.9z M70.6,48.9c0-0.5,0-1-0.2-1.5c-0.1-0.5-0.4-0.7-0.8-0.7
	c-0.4,0-0.7,0.2-0.8,0.7c-0.2,1-0.2,2,0,3c0.1,0.5,0.4,0.8,0.8,0.8c0.4,0,0.7-0.3,0.8-0.8C70.5,49.9,70.6,49.4,70.6,48.9z"/>
<path class="st0" d="M57.3,38.9c0-0.6,0.1-1.1,0.2-1.7c0.3-1,1-1.6,2-1.6c1,0,1.8,0.5,2.1,1.6c0.4,1.2,0.4,2.5,0,3.7
	c-0.4,1.2-1.4,1.8-2.6,1.5c-0.7-0.2-1.2-0.7-1.4-1.4C57.3,40.3,57.3,39.6,57.3,38.9z M60.5,39.1c0-0.5,0-1-0.2-1.5
	c-0.1-0.5-0.4-0.7-0.8-0.7c-0.4,0-0.6,0.2-0.8,0.7c-0.2,1-0.2,2,0,3c0.1,0.4,0.4,0.7,0.8,0.7c0.4,0,0.6-0.2,0.8-0.7
	C60.5,40.1,60.5,39.6,60.5,39.1z"/>
<path class="st0" d="M67.3,29.9c0-0.8,0-1.5,0.3-2.1c0.4-0.9,1-1.4,2-1.4c0.9,0,1.6,0.4,2,1.4c0.5,1.4,0.5,2.7,0,4.1
	c-0.3,0.9-1.1,1.4-2,1.4c-1,0-1.6-0.5-2-1.5c-0.1-0.2-0.1-0.5-0.2-0.7C67.4,30.7,67.3,30.2,67.3,29.9z M68.7,29.8
	c0,0.5,0,1.1,0.2,1.6c0.1,0.4,0.4,0.7,0.8,0.7c0.3,0,0.7-0.2,0.8-0.7c0.3-1,0.3-2.1,0-3.2c-0.1-0.4-0.4-0.7-0.8-0.7
	c-0.3,0-0.6,0.2-0.7,0.6C68.7,28.8,68.7,29.3,68.7,29.8z"/>
<path class="st0" d="M61.8,21.5c0,0.7-0.1,1.5-0.4,2.1c-0.4,0.8-1,1.3-2,1.2c-0.9,0-1.6-0.5-1.9-1.3c-0.5-1.4-0.5-2.8,0-4.1
	c0.3-1,1.1-1.5,2.1-1.4c1,0.1,1.7,0.7,2,1.8C61.8,20.4,61.9,20.9,61.8,21.5z M60.5,21.5c0-0.5,0-1-0.2-1.5c-0.1-0.5-0.4-0.7-0.8-0.7
	c-0.4,0-0.6,0.2-0.8,0.7c-0.3,1-0.2,2,0,3c0.1,0.5,0.4,0.7,0.8,0.7c0.4,0,0.7-0.2,0.8-0.7C60.5,22.5,60.5,22,60.5,21.5z"/>
<path class="st0" d="M77.4,29.8c0,0.6,0,1.3-0.3,1.9c-0.4,1-1.1,1.5-2,1.5c-1,0-1.7-0.5-2-1.6c-0.4-1.2-0.4-2.4,0-3.6
	c0.4-1.3,1.5-2,2.8-1.6c0.6,0.2,1,0.7,1.3,1.2C77.3,28.4,77.4,29.1,77.4,29.8z M76,29.8c0-0.5,0-1-0.2-1.5c-0.1-0.4-0.4-0.7-0.8-0.7
	c-0.4,0-0.6,0.2-0.8,0.7c-0.2,0.7-0.2,1.5-0.1,2.2c0,0.4,0.1,0.7,0.2,1.1c0.1,0.3,0.3,0.5,0.7,0.5c0.3,0,0.6-0.2,0.7-0.5
	c0.1-0.1,0.1-0.3,0.1-0.4C76,30.7,76,30.3,76,29.8z"/>
<path class="st0" d="M66.6,29.7c0,0.8-0.1,1.5-0.3,2.1c-0.4,0.9-1.1,1.4-2,1.4c-0.9,0-1.7-0.5-2-1.4c-0.4-1.3-0.4-2.6,0-3.9
	c0.3-1,1-1.5,2-1.5c1,0,1.7,0.5,2,1.5c0.1,0.2,0.1,0.4,0.2,0.6C66.6,29,66.6,29.4,66.6,29.7z M65.2,29.9c0-0.5,0-1-0.2-1.5
	c-0.1-0.5-0.4-0.7-0.8-0.7c-0.4,0-0.7,0.2-0.8,0.7c-0.2,1-0.2,2,0,3c0.1,0.5,0.4,0.7,0.8,0.7c0.3,0,0.6-0.3,0.8-0.7
	C65.2,30.9,65.2,30.4,65.2,29.9z"/>
<path class="st0" d="M75.2,47.8c-0.4,0.2-0.7,0.4-1,0.5c-0.3,0.1-0.5,0-0.5-0.3c0-0.2,0-0.4,0-0.6c0-0.2,0.1-0.3,0.2-0.4
	c0.6-0.3,1.2-0.7,1.6-1.4c0.2-0.3,0.5-0.2,0.8-0.1c0.3,0,0.2,0.3,0.2,0.5c0,1.9,0,3.8,0,5.7c0,0.5-0.1,0.5-0.5,0.5
	c-0.1,0-0.2,0-0.3,0c-0.4,0-0.5-0.1-0.5-0.5c0-1.2,0-2.4,0-3.5C75.2,48.2,75.2,48,75.2,47.8z"/>
<path class="st0" d="M75.2,56.1c-0.4,0.2-0.7,0.3-1,0.5c-0.3,0.1-0.5,0-0.5-0.3c0-0.1,0-0.3,0-0.4c0-0.3,0.1-0.4,0.3-0.6
	c0.6-0.3,1.1-0.7,1.5-1.3c0.2-0.3,0.5-0.2,0.8-0.2c0.2,0,0.2,0.3,0.2,0.5c0,1.9,0,3.9,0,5.8c0,0.3-0.1,0.5-0.5,0.5
	c-0.9,0-0.9,0-0.9-0.9c0-1.1,0-2.1,0-3.2C75.2,56.4,75.2,56.3,75.2,56.1z"/>
<path class="st0" d="M75.2,20.3c-0.4,0.2-0.7,0.4-1.1,0.6c-0.3,0.1-0.4,0-0.4-0.3c0-0.2,0-0.4,0-0.6c0-0.2,0.1-0.3,0.2-0.4
	c0.6-0.3,1.2-0.7,1.6-1.4c0.2-0.3,0.5-0.2,0.8-0.1c0.2,0,0.2,0.3,0.2,0.5c0,1.9,0,3.8,0,5.7c0,0.4-0.1,0.5-0.5,0.5
	c-0.8,0-0.8,0-0.8-0.8C75.2,22.7,75.2,21.5,75.2,20.3z"/>
<path class="st0" d="M75.2,37.9c-0.4,0.2-0.7,0.3-1,0.5c-0.1,0.1-0.3,0.1-0.4,0c-0.2-0.2-0.1-1.1,0.1-1.2c0.6-0.3,1.2-0.8,1.6-1.4
	c0.2-0.3,0.5-0.2,0.8-0.1c0.2,0,0.2,0.3,0.2,0.5c0,1.9,0,3.8,0,5.8c0,0.4-0.1,0.5-0.5,0.5c-0.8,0-0.8,0-0.8-0.8
	C75.2,40.3,75.2,39.1,75.2,37.9z"/>
<path class="st0" d="M71,57.3c0,1,0,1.9,0,2.9c0,0.3-0.1,0.4-0.4,0.4c-1,0-0.9,0.1-0.9-0.8c0-1.1,0-2.2,0-3.3c0-0.3-0.1-0.3-0.3-0.2
	c-0.3,0.2-0.5,0.3-0.8,0.4c-0.3,0.1-0.4,0-0.4-0.3c0,0,0-0.1,0-0.1c-0.1-0.5,0.1-0.9,0.6-1.1c0.5-0.2,0.9-0.6,1.2-1.1
	c0.2-0.4,0.6-0.2,0.8-0.2c0.3,0,0.2,0.3,0.2,0.5C71,55.3,71,56.3,71,57.3z"/>
<path class="st0" d="M64.4,20.3c-0.4,0.2-0.7,0.4-1.1,0.5c-0.3,0.1-0.4,0-0.5-0.3c0,0,0-0.1,0-0.2c-0.1-0.5,0.1-0.8,0.6-1
	c0.5-0.2,0.9-0.6,1.2-1.1c0.2-0.4,0.6-0.2,0.8-0.2c0.3,0,0.2,0.3,0.2,0.5c0,1.9,0,3.8,0,5.7c0,0.5,0,0.5-0.5,0.5c-0.1,0-0.2,0-0.3,0
	c-0.5,0-0.5,0-0.5-0.5C64.4,22.9,64.4,21.6,64.4,20.3z"/>
<path class="st0" d="M64.4,37.9c-0.4,0.2-0.7,0.4-1,0.5c-0.3,0.1-0.5,0-0.5-0.3c0-0.2,0-0.4,0-0.5c0-0.2,0.1-0.3,0.3-0.4
	c0.6-0.3,1.2-0.7,1.5-1.3c0.2-0.3,0.5-0.2,0.8-0.2c0.3,0,0.2,0.3,0.2,0.5c0,1.9,0,3.8,0,5.7c0,0.5,0,0.5-0.5,0.5
	c-0.8,0-0.8,0-0.8-0.8C64.4,40.4,64.4,39.1,64.4,37.9z"/>
<path class="st0" d="M59.7,56.1c-0.4,0.2-0.7,0.4-1,0.5c-0.3,0.1-0.5,0-0.5-0.3c0-0.1,0-0.1,0-0.2c-0.1-0.4,0.1-0.7,0.5-0.9
	c0.5-0.2,1-0.6,1.3-1.2c0.2-0.3,0.5-0.2,0.8-0.2c0.3,0,0.2,0.3,0.2,0.5c0,1.9,0,3.8,0,5.7c0,0.5,0,0.5-0.5,0.5c-0.8,0-0.8,0-0.8-0.8
	C59.7,58.6,59.7,57.4,59.7,56.1z"/>
<path class="st0" d="M64.4,47.8c-0.4,0.2-0.7,0.4-1,0.5c-0.3,0.1-0.4,0-0.5-0.3c0-0.1,0-0.2,0-0.3c-0.1-0.4,0.1-0.6,0.5-0.8
	c0.5-0.3,1-0.6,1.3-1.2c0.2-0.4,0.5-0.2,0.8-0.2c0.3,0,0.2,0.3,0.2,0.5c0,1.9,0,3.8,0,5.7c0,0.5,0,0.5-0.5,0.5c-0.1,0-0.2,0-0.3,0
	c-0.3,0-0.4-0.1-0.4-0.4c0-1.2,0-2.5,0-3.7C64.4,48.1,64.4,48,64.4,47.8z"/>
<path class="st0" d="M59.7,47.8c-0.4,0.2-0.7,0.4-1,0.5c-0.3,0.1-0.5,0-0.5-0.3c0-0.1,0-0.2,0-0.3c-0.1-0.4,0.1-0.6,0.5-0.8
	c0.5-0.3,1-0.6,1.3-1.2c0.2-0.4,0.5-0.2,0.8-0.2c0.3,0,0.2,0.3,0.2,0.5c0,1.9,0,3.8,0,5.7c0,0.5,0,0.5-0.5,0.5c-0.8,0-0.8,0-0.8-0.8
	C59.7,50.3,59.7,49.1,59.7,47.8z"/>
<path class="st0" d="M61,30c0,1,0,1.9,0,2.9c0,0.3-0.1,0.5-0.5,0.5c-0.8,0-0.8,0-0.8-0.8c0-1.1,0-2.2,0-3.3c0-0.3-0.1-0.3-0.3-0.2
	c-0.2,0.2-0.5,0.3-0.8,0.4c-0.3,0.1-0.4,0-0.4-0.3c0-0.1,0-0.2,0-0.3c-0.1-0.4,0.1-0.7,0.5-0.8c0.5-0.3,1-0.7,1.3-1.2
	c0.2-0.3,0.5-0.2,0.8-0.2c0.3,0,0.2,0.3,0.2,0.5C61,28.1,61,29,61,30z"/>
<rect x="24.3" y="78.6" class="st4" width="64.4" height="10"/>
<text transform="matrix(1 0 0 1 24.3419 87.1628)" class="st0 st5 st6">GenomCode</text>
</svg>
