<?xml version="1.0" encoding="utf-8"?>
<!-- Generator: Adobe Illustrator 22.0.0, SVG Export Plug-In . SVG Version: 6.00 Build 0)  -->
<svg version="1.1" id="Layer_1" xmlns="http://www.w3.org/2000/svg" xmlns:xlink="http://www.w3.org/1999/xlink" x="0px" y="0px"
	 viewBox="0 0 108.5 91" style="enable-background:new 0 0 108.5 91;" xml:space="preserve">
<style type="text/css">
	.st0{fill:#808080;}
	.st1{fill:url(#SVGID_1_);}
	.st2{fill:url(#SVGID_2_);}
	.st3{fill:url(#SVGID_3_);}
	.st4{fill:none;}
	.st5{opacity:0.14;fill:#0086D8;}
</style>
<path class="st0" d="M1.4-98.7c0-1.4,0-2.9,0-4.3c0.1-0.1,0.1-0.2,0.1-0.2c0.1-1.7,0.3-3.4,0.7-5.1c2.1-10,7.5-18,15.9-23.8
	c5.1-3.5,10.9-5.6,17.1-6.2c0.6-0.1,1.2,0,1.8-0.2c1.5,0,3,0,4.4,0c0.1,0.1,0.2,0.1,0.3,0.1c1.4,0.1,2.8,0.3,4.2,0.5
	c8.6,1.7,15.8,5.8,21.5,12.4c5.4,6.2,8.4,13.4,9.1,21.5c0,0.2,0,0.5,0.1,0.7c0,1.5,0,3,0,4.5c-0.1,0.1-0.1,0.2-0.1,0.3
	c-0.1,1.2-0.2,2.4-0.4,3.5c-1.1,7-4,13.2-8.6,18.5C61-68.9,52.8-64.6,42.9-63.5c-0.5,0.1-1,0-1.5,0.2c-1.5,0-3,0-4.5,0
	c-0.1-0.1-0.2-0.1-0.3-0.1c-1.6-0.1-3.2-0.3-4.8-0.6c-9.2-1.9-16.7-6.5-22.4-13.8c-4.4-5.6-7-12.1-7.8-19.2
	C1.5-97.6,1.5-98.2,1.4-98.7z M39-133.5C21-133.5,6.4-119,6.4-101c0,18,14.5,32.6,32.6,32.7c18,0,32.6-14.6,32.7-32.6
	C71.6-118.9,57-133.5,39-133.5z"/>
<path class="st0" d="M31.4-103.6c-0.2,0-0.3,0-0.4,0c-3.1,0-6.2,0-9.3,0c-0.3,0-0.4,0.1-0.6,0.3c-0.3,0.5-0.4,0.9-0.5,1.5
	c0.2,0,0.3,0,0.5,0c3.8,0,7.6,0,11.4,0c0.4,0,0.5,0.1,0.5,0.5c0,0.1,0,0.1,0,0.2c0,0.4,0,0.8-0.2,1.1c-0.2,0.2-0.6,0.1-0.9,0.1
	c-3.7,0-7.3,0-11,0c-0.3,0-0.4,0.1-0.3,0.4c0.1,0.4,0.3,0.8,0.4,1.1c0.1,0.2,0.3,0.3,0.5,0.3c3.1,0,6.3,0,9.4,0c0.1,0,0.3,0,0.4,0
	c0,0.1-0.1,0.2-0.2,0.2c-0.4,0.3-0.8,0.5-1.2,0.8c-0.9,0.7-1.8,0.8-2.9,0.8c-1.4-0.1-2.7,0-4.1,0c0,0.2,0.2,0.2,0.3,0.3
	c1.5,1.2,3.2,2,4.9,2.8c1.8,0.9,3.7,1.7,5.4,2.9c2.5,1.8,4.3,4,4.8,7.1c0.1,0.6,0.2,1.2,0.2,1.8c0,1-0.7,1.8-1.7,1.9
	c-1,0.1-1.8-0.6-1.9-1.6c-0.1-0.5-0.1-0.5-0.6-0.5c-3.8,0-7.6,0-11.4,0c-0.3,0-0.5,0-0.3-0.4c0.1-0.4,0.2-0.7,0.3-1.1
	c0.1-0.3,0.2-0.3,0.5-0.3c3.4,0,6.7,0,10.1,0c0.2,0,0.3,0,0.5,0c0.6,0,0.6,0,0.4-0.5c-0.5-1.3-0.5-1.3-1.9-1.3c-2.4,0-4.9,0-7.3,0
	c-0.1,0-0.1,0-0.3,0c0.4-0.4,0.9-0.6,1.2-0.9c0.9-0.7,1.9-1,3.1-0.9c0.8,0.1,1.6,0,2.6,0c-0.8-0.6-1.5-1-2.2-1.4
	c-1.7-0.9-3.5-1.7-5.2-2.6c-2-1-3.7-2.3-5.3-3.9c-2.6-2.6-3.2-6.8-1.4-9.9c0.7-1.2,1.8-2.2,2.8-3.1c0.4-0.3,0.8-0.6,1.1-0.9
	c0.1-0.1,0.2-0.1,0.3-0.1c1.1,0.7,2.3,1.2,3.5,1.8c-0.9,0.6-1.7,1.1-2.5,1.8c0.1,0.1,0.2,0.1,0.3,0.1c1.7,0,3.5,0,5.2,0
	c0.1,0,0.3,0,0.4,0.1C29.9-104.8,30.7-104.3,31.4-103.6z"/>
<linearGradient id="SVGID_1_" gradientUnits="userSpaceOnUse" x1="16.8709" y1="-107.515" x2="38.7597" y2="-107.515">
	<stop  offset="0" style="stop-color:#CCCCCC"/>
	<stop  offset="1" style="stop-color:#666666"/>
</linearGradient>
<path class="st1" d="M30.3-94.8c1.2-0.7,2.3-1.5,3.3-2.5c1.5-1.4,2.1-4,1.1-5.8c-0.5-0.9-1.2-1.6-1.9-2.2c-1.5-1.3-3.2-2.3-4.9-3.2
	c-1.7-0.9-3.5-1.7-5.1-2.7c-2.7-1.7-4.7-4.1-5.6-7.3c-0.2-0.6-0.3-1.2-0.3-1.8c0-1,0.7-1.8,1.7-1.9c0.9-0.1,1.7,0.6,1.9,1.6
	c0.2,1.6,0.9,2.9,1.9,4.1c1.1,1.5,2.6,2.4,4.2,3.2c2.1,1,4.3,2.2,6.2,3.5c1.6,1.1,3,2.3,4.3,3.8c1.4,1.7,1.9,3.8,1.7,6
	c-0.2,2.3-1.4,4.2-3.1,5.7c-0.5,0.4-1,0.9-1.5,1.3c-0.1,0.1-0.2,0.2-0.4,0.1C32.6-93.6,31.4-94.2,30.3-94.8z"/>
<linearGradient id="SVGID_2_" gradientUnits="userSpaceOnUse" x1="22.7454" y1="-116.9701" x2="38.7849" y2="-116.9701">
	<stop  offset="0" style="stop-color:#CCCCCC"/>
	<stop  offset="1" style="stop-color:#666666"/>
</linearGradient>
<path class="st2" d="M30.1-113.7c0.5-0.3,0.9-0.5,1.4-0.9c-0.9,0-1.6,0-2.4,0c-0.4,0-0.8-0.1-1.2-0.3c-0.8-0.5-1.5-0.9-2.3-1.5
	c0.2,0,0.3,0,0.5,0c2.3,0,4.6,0,7,0c0.2,0,0.4-0.1,0.5-0.3c0.3-0.5,0.7-1,1-1.5c-0.2,0-0.3,0-0.4,0c-3.3,0-6.7,0-10,0
	c-0.3,0-0.5-0.1-0.6-0.4c-0.2-0.5-0.5-0.9-0.6-1.4c0.2-0.1,0.3,0,0.4,0c3.8,0,7.6,0,11.4,0c0.4,0,0.5-0.1,0.6-0.5
	c0.1-0.9,0.7-1.5,1.6-1.6c0.7-0.1,1.5,0.3,1.8,1c0.2,0.5,0.2,1,0.1,1.5c-0.4,2.9-1.9,5.1-4,7c-0.3,0.3-0.6,0.5-0.9,0.8
	c-0.1,0.1-0.2,0.1-0.3,0.1C32.4-112.5,31.2-113.1,30.1-113.7z"/>
<linearGradient id="SVGID_3_" gradientUnits="userSpaceOnUse" x1="16.9493" y1="-84.9242" x2="25.4404" y2="-84.9242">
	<stop  offset="0" style="stop-color:#CCCCCC"/>
	<stop  offset="1" style="stop-color:#666666"/>
</linearGradient>
<path class="st3" d="M25.4-88.3c-1.2,0.7-2.3,1.4-3.2,2.4c-1.1,1.2-1.5,2.6-1.7,4.1c0,0.3,0,0.6-0.1,0.9c-0.2,0.8-1.1,1.4-1.9,1.3
	c-1-0.1-1.6-0.9-1.6-1.8c0.1-2.9,1.2-5.5,3.3-7.5c0.4-0.4,0.8-0.7,1.3-1.1c0.1-0.1,0.2-0.2,0.3-0.1C23-89.5,24.2-88.9,25.4-88.3z"/>
<path class="st0" d="M45.8-83.2c0-0.5,0.1-1,0.2-1.5c0.3-1.1,1.1-1.8,2.1-1.8c1.1,0,1.8,0.6,2.1,1.8c0.3,1.1,0.3,2.2,0,3.3
	c-0.3,1.3-1.4,2-2.6,1.7c-0.8-0.2-1.2-0.7-1.5-1.4C45.8-81.8,45.8-82.5,45.8-83.2z M49-83c0-0.5,0-1-0.2-1.5
	c-0.1-0.5-0.4-0.7-0.8-0.7c-0.4,0-0.6,0.2-0.8,0.7c-0.3,1-0.3,2.1,0,3.1c0.1,0.4,0.4,0.7,0.8,0.7c0.4,0,0.6-0.3,0.8-0.7
	C49-82,49-82.5,49-83z"/>
<path class="st0" d="M55.7-118.8c0,0.8-0.1,1.5-0.4,2.2c-0.4,0.9-1.1,1.3-2,1.2c-0.9,0-1.6-0.5-1.9-1.4c-0.4-1.3-0.4-2.6-0.1-3.9
	c0.3-1,1.1-1.6,2-1.6c1,0,1.7,0.5,2,1.5c0.1,0.3,0.2,0.6,0.2,0.8C55.6-119.4,55.7-119,55.7-118.8z M52.4-118.8c0,0.5,0,1,0.2,1.5
	c0.1,0.5,0.4,0.7,0.8,0.7c0.4,0,0.7-0.2,0.8-0.7c0.3-1,0.2-2.1,0-3.1c-0.1-0.4-0.4-0.7-0.8-0.7c-0.4,0-0.6,0.2-0.7,0.7
	C52.5-119.8,52.4-119.3,52.4-118.8z"/>
<path class="st0" d="M55.7-101c0,0.7-0.1,1.3-0.4,2c-0.4,0.9-1.1,1.3-2,1.3c-0.9,0-1.6-0.5-1.9-1.4c-0.4-1.3-0.4-2.6,0-3.9
	c0.3-1.1,1.1-1.6,2.2-1.5c1,0.1,1.7,0.8,2,1.9C55.6-102.1,55.7-101.6,55.7-101z M54.3-101.1c0-0.5,0-1-0.2-1.5
	c-0.1-0.5-0.4-0.8-0.8-0.8c-0.4,0-0.6,0.2-0.8,0.7c-0.2,1-0.2,2,0,3c0.1,0.5,0.4,0.8,0.8,0.7c0.4,0,0.6-0.3,0.8-0.7
	C54.3-100.2,54.3-100.7,54.3-101.1z"/>
<path class="st0" d="M55.7-91.3c0,0.7-0.1,1.4-0.3,2.1c-0.4,0.9-1.1,1.3-2,1.3c-0.9,0-1.6-0.5-1.9-1.4c-0.4-1.3-0.4-2.6,0-3.9
	c0.3-1,1-1.5,2-1.5c1,0,1.7,0.5,2,1.5C55.6-92.6,55.6-92,55.7-91.3z M54.3-91.3c0-0.5,0-1-0.2-1.5c-0.1-0.5-0.4-0.7-0.8-0.7
	c-0.4,0-0.7,0.2-0.8,0.7c-0.2,1-0.2,2,0,3c0.1,0.5,0.4,0.8,0.8,0.8c0.4,0,0.7-0.3,0.8-0.8C54.3-90.4,54.3-90.8,54.3-91.3z"/>
<path class="st0" d="M41-101.3c0-0.6,0.1-1.1,0.2-1.7c0.3-1,1-1.6,2-1.6c1,0,1.8,0.5,2.1,1.6c0.4,1.2,0.4,2.5,0,3.7
	c-0.4,1.2-1.4,1.8-2.6,1.5c-0.7-0.2-1.2-0.7-1.4-1.4C41.1-99.9,41-100.6,41-101.3z M44.3-101.2c0-0.5,0-1-0.2-1.5
	c-0.1-0.5-0.4-0.7-0.8-0.7c-0.4,0-0.6,0.2-0.8,0.7c-0.2,1-0.2,2,0,3c0.1,0.4,0.4,0.7,0.8,0.7c0.4,0,0.6-0.2,0.8-0.7
	C44.2-100.1,44.3-100.6,44.3-101.2z"/>
<path class="st0" d="M51.1-110.3c0-0.8,0-1.5,0.3-2.1c0.4-0.9,1-1.4,2-1.4c0.9,0,1.6,0.4,2,1.4c0.5,1.4,0.5,2.7,0,4.1
	c-0.3,0.9-1.1,1.4-2,1.4c-1,0-1.6-0.5-2-1.5c-0.1-0.2-0.1-0.5-0.2-0.7C51.1-109.5,51.1-110,51.1-110.3z M52.4-110.4
	c0,0.5,0,1.1,0.2,1.6c0.1,0.4,0.4,0.7,0.8,0.7c0.3,0,0.7-0.2,0.8-0.7c0.3-1,0.3-2.1,0-3.2c-0.1-0.4-0.4-0.7-0.8-0.7
	c-0.3,0-0.6,0.2-0.7,0.6C52.5-111.5,52.4-110.9,52.4-110.4z"/>
<path class="st0" d="M45.6-118.7c0,0.7-0.1,1.5-0.4,2.1c-0.4,0.8-1,1.3-2,1.2c-0.9,0-1.6-0.5-1.9-1.3c-0.5-1.4-0.5-2.8,0-4.1
	c0.3-1,1.1-1.5,2.1-1.4c1,0.1,1.7,0.7,2,1.8C45.6-119.8,45.6-119.3,45.6-118.7z M44.3-118.7c0-0.5,0-1-0.2-1.5
	c-0.1-0.5-0.4-0.7-0.8-0.7c-0.4,0-0.6,0.2-0.8,0.7c-0.3,1-0.2,2,0,3c0.1,0.5,0.4,0.7,0.8,0.7c0.4,0,0.7-0.2,0.8-0.7
	C44.2-117.7,44.3-118.2,44.3-118.7z"/>
<path class="st0" d="M61.1-110.4c0,0.6,0,1.3-0.3,1.9c-0.4,1-1.1,1.5-2,1.5c-1,0-1.7-0.5-2-1.6c-0.4-1.2-0.4-2.4,0-3.6
	c0.4-1.3,1.5-2,2.8-1.6c0.6,0.2,1,0.7,1.3,1.2C61.1-111.8,61.1-111.1,61.1-110.4z M59.8-110.4c0-0.5,0-1-0.2-1.5
	c-0.1-0.4-0.4-0.7-0.8-0.7c-0.4,0-0.6,0.2-0.8,0.7c-0.2,0.7-0.2,1.5-0.1,2.2c0,0.4,0.1,0.7,0.2,1.1c0.1,0.3,0.3,0.5,0.7,0.5
	c0.3,0,0.6-0.2,0.7-0.5c0.1-0.1,0.1-0.3,0.1-0.4C59.8-109.5,59.8-109.9,59.8-110.4z"/>
<path class="st0" d="M50.3-110.5c0,0.8-0.1,1.5-0.3,2.1c-0.4,0.9-1.1,1.4-2,1.4c-0.9,0-1.7-0.5-2-1.4c-0.4-1.3-0.4-2.6,0-3.9
	c0.3-1,1-1.5,2-1.5c1,0,1.7,0.5,2,1.5c0.1,0.2,0.1,0.4,0.2,0.6C50.3-111.3,50.4-110.8,50.3-110.5z M49-110.4c0-0.5,0-1-0.2-1.5
	c-0.1-0.5-0.4-0.7-0.8-0.7c-0.4,0-0.7,0.2-0.8,0.7c-0.2,1-0.2,2,0,3c0.1,0.5,0.4,0.7,0.8,0.7c0.3,0,0.6-0.3,0.8-0.7
	C49-109.4,49-109.9,49-110.4z"/>
<path class="st0" d="M58.9-92.4c-0.4,0.2-0.7,0.4-1,0.5c-0.3,0.1-0.5,0-0.5-0.3c0-0.2,0-0.4,0-0.6c0-0.2,0.1-0.3,0.2-0.4
	c0.6-0.3,1.2-0.7,1.6-1.4c0.2-0.3,0.5-0.2,0.8-0.1c0.3,0,0.2,0.3,0.2,0.5c0,1.9,0,3.8,0,5.7c0,0.5-0.1,0.5-0.5,0.5
	c-0.1,0-0.2,0-0.3,0c-0.4,0-0.5-0.1-0.5-0.5c0-1.2,0-2.4,0-3.5C58.9-92.1,58.9-92.2,58.9-92.4z"/>
<path class="st0" d="M58.9-84.1c-0.4,0.2-0.7,0.3-1,0.5c-0.3,0.1-0.5,0-0.5-0.3c0-0.1,0-0.3,0-0.4c0-0.3,0.1-0.4,0.3-0.6
	c0.6-0.3,1.1-0.7,1.5-1.3c0.2-0.3,0.5-0.2,0.8-0.2c0.2,0,0.2,0.3,0.2,0.5c0,1.9,0,3.9,0,5.8c0,0.3-0.1,0.5-0.5,0.5
	c-0.9,0-0.9,0-0.9-0.9c0-1.1,0-2.1,0-3.2C58.9-83.8,58.9-83.9,58.9-84.1z"/>
<path class="st0" d="M58.9-119.9c-0.4,0.2-0.7,0.4-1.1,0.6c-0.3,0.1-0.4,0-0.4-0.3c0-0.2,0-0.4,0-0.6c0-0.2,0.1-0.3,0.2-0.4
	c0.6-0.3,1.2-0.7,1.6-1.4c0.2-0.3,0.5-0.2,0.8-0.1c0.2,0,0.2,0.3,0.2,0.5c0,1.9,0,3.8,0,5.7c0,0.4-0.1,0.5-0.5,0.5
	c-0.8,0-0.8,0-0.8-0.8C58.9-117.5,58.9-118.7,58.9-119.9z"/>
<path class="st0" d="M58.9-102.3c-0.4,0.2-0.7,0.3-1,0.5c-0.1,0.1-0.3,0.1-0.4,0c-0.2-0.2-0.1-1.1,0.1-1.2c0.6-0.3,1.2-0.8,1.6-1.4
	c0.2-0.3,0.5-0.2,0.8-0.1c0.2,0,0.2,0.3,0.2,0.5c0,1.9,0,3.8,0,5.8c0,0.4-0.1,0.5-0.5,0.5c-0.8,0-0.8,0-0.8-0.8
	C58.9-99.9,58.9-101.1,58.9-102.3z"/>
<path class="st0" d="M54.8-83c0,1,0,1.9,0,2.9c0,0.3-0.1,0.4-0.4,0.4c-1,0-0.9,0.1-0.9-0.8c0-1.1,0-2.2,0-3.3c0-0.3-0.1-0.3-0.3-0.2
	c-0.3,0.2-0.5,0.3-0.8,0.4c-0.3,0.1-0.4,0-0.4-0.3c0,0,0-0.1,0-0.1c-0.1-0.5,0.1-0.9,0.6-1.1c0.5-0.2,0.9-0.6,1.2-1.1
	c0.2-0.4,0.6-0.2,0.8-0.2c0.3,0,0.2,0.3,0.2,0.5C54.8-84.9,54.8-83.9,54.8-83z"/>
<path class="st0" d="M48.2-120c-0.4,0.2-0.7,0.4-1.1,0.5c-0.3,0.1-0.4,0-0.5-0.3c0,0,0-0.1,0-0.2c-0.1-0.5,0.1-0.8,0.6-1
	c0.5-0.2,0.9-0.6,1.2-1.1c0.2-0.4,0.6-0.2,0.8-0.2c0.3,0,0.2,0.3,0.2,0.5c0,1.9,0,3.8,0,5.7c0,0.5,0,0.5-0.5,0.5c-0.1,0-0.2,0-0.3,0
	c-0.5,0-0.5,0-0.5-0.5C48.2-117.3,48.2-118.6,48.2-120z"/>
<path class="st0" d="M48.2-102.3c-0.4,0.2-0.7,0.4-1,0.5c-0.3,0.1-0.5,0-0.5-0.3c0-0.2,0-0.4,0-0.5c0-0.2,0.1-0.3,0.3-0.4
	c0.6-0.3,1.2-0.7,1.5-1.3c0.2-0.3,0.5-0.2,0.8-0.2c0.3,0,0.2,0.3,0.2,0.5c0,1.9,0,3.8,0,5.7c0,0.5,0,0.5-0.5,0.5
	c-0.8,0-0.8,0-0.8-0.8C48.2-99.9,48.2-101.1,48.2-102.3z"/>
<path class="st0" d="M43.4-84.1c-0.4,0.2-0.7,0.4-1,0.5c-0.3,0.1-0.5,0-0.5-0.3c0-0.1,0-0.1,0-0.2c-0.1-0.4,0.1-0.7,0.5-0.9
	c0.5-0.2,1-0.6,1.3-1.2c0.2-0.3,0.5-0.2,0.8-0.2c0.3,0,0.2,0.3,0.2,0.5c0,1.9,0,3.8,0,5.7c0,0.5,0,0.5-0.5,0.5c-0.8,0-0.8,0-0.8-0.8
	C43.4-81.6,43.4-82.8,43.4-84.1z"/>
<path class="st0" d="M48.2-92.4c-0.4,0.2-0.7,0.4-1,0.5c-0.3,0.1-0.4,0-0.5-0.3c0-0.1,0-0.2,0-0.3c-0.1-0.4,0.1-0.6,0.5-0.8
	c0.5-0.3,1-0.6,1.3-1.2c0.2-0.4,0.5-0.2,0.8-0.2c0.3,0,0.2,0.3,0.2,0.5c0,1.9,0,3.8,0,5.7c0,0.5,0,0.5-0.5,0.5c-0.1,0-0.2,0-0.3,0
	c-0.3,0-0.4-0.1-0.4-0.4c0-1.2,0-2.5,0-3.7C48.2-92.1,48.2-92.2,48.2-92.4z"/>
<path class="st0" d="M43.4-92.4c-0.4,0.2-0.7,0.4-1,0.5c-0.3,0.1-0.5,0-0.5-0.3c0-0.1,0-0.2,0-0.3c-0.1-0.4,0.1-0.6,0.5-0.8
	c0.5-0.3,1-0.6,1.3-1.2c0.2-0.4,0.5-0.2,0.8-0.2c0.3,0,0.2,0.3,0.2,0.5c0,1.9,0,3.8,0,5.7c0,0.5,0,0.5-0.5,0.5c-0.8,0-0.8,0-0.8-0.8
	C43.4-89.9,43.4-91.1,43.4-92.4z"/>
<path class="st0" d="M44.7-110.2c0,1,0,1.9,0,2.9c0,0.3-0.1,0.5-0.5,0.5c-0.8,0-0.8,0-0.8-0.8c0-1.1,0-2.2,0-3.3
	c0-0.3-0.1-0.3-0.3-0.2c-0.2,0.2-0.5,0.3-0.8,0.4c-0.3,0.1-0.4,0-0.4-0.3c0-0.1,0-0.2,0-0.3c-0.1-0.4,0.1-0.7,0.5-0.8
	c0.5-0.3,1-0.7,1.3-1.2c0.2-0.3,0.5-0.2,0.8-0.2c0.3,0,0.2,0.3,0.2,0.5C44.7-112.1,44.7-111.2,44.7-110.2z"/>
<rect x="8.1" y="-61.6" class="st4" width="64.4" height="10"/>
<text transform="matrix(1 0 0 1 8.1019 -53.0588)" class="st0" style="font-family:'MyriadPro-Regular'; font-size:12px;">GenomCode</text>
<g>
	<path class="st4" d="M15.2,71.3c-0.9,0.3-2.2,0.3-2.8,1c-3.7,4.3-5.3,9.5-5.5,15.2c0,0.6,0.8,1.3,1.2,1.9c0.4-0.6,1.2-1.2,1.3-1.8
		c0.3-5.8,2.2-10.9,6.3-15.2C15.5,72,15.4,71.7,15.2,71.3z M96.1,72.3c-0.6-0.7-2-0.8-3.1-1.1L92.5,72c4.1,4.4,6.1,9.6,6.4,15.5
		c0,0.6,0.9,1.1,1.4,1.7c0.4-0.7,1.1-1.3,1.1-2C101.2,81.7,99.6,76.6,96.1,72.3z M103.1,59.8c-0.3-5.9-0.1-11.9-0.1-17.8
		c0-6.3-0.1-12.5,0.1-18.8c0.1-3.5-1.3-5.8-4.3-7.3c-2.1-1-4.3-2.2-6.6-2.7c-6.7-1.4-13.6-2.4-20.3-3.8c-1.5-0.3-3.2-1.1-4.4-2.1
		c-6.8-6.4-16.9-7.8-23.9-2c-4,3.3-8,4.5-12.8,4.8c-1.1,0.1-2.2,0.2-3.2,0.5c-5.8,1.6-11.6,3.1-17.3,5c-3.5,1.2-5,3.9-4.9,7.8
		c0.2,12.3,0.2,24.6,0,36.9c0,3.2,1.1,5.6,3.9,6.8c3.7,1.6,7.5,3.3,11.5,4.2c19.1,4.2,38.4,4.3,57.7,1.6c6.6-0.9,13-3,19.3-5
		C101.5,66.9,103.3,64,103.1,59.8z M64.4,8.6H43.9C47.3,3.4,59.8,2.7,64.4,8.6z"/>
	<path d="M103.1,59.8c-0.3-5.9-0.1-11.9-0.1-17.8c0-6.3-0.1-12.5,0.1-18.8c0.1-3.5-1.3-5.8-4.3-7.3c-2.1-1-4.3-2.2-6.6-2.7
		c-6.7-1.4-13.6-2.4-20.3-3.8c-1.5-0.3-3.2-1.1-4.4-2.1c-6.8-6.4-16.9-7.8-23.9-2c-4,3.3-8,4.5-12.8,4.8c-1.1,0.1-2.2,0.2-3.2,0.5
		c-5.8,1.6-11.6,3.1-17.3,5c-3.5,1.2-5,3.9-4.9,7.8c0.2,12.3,0.2,24.6,0,36.9c0,3.2,1.1,5.6,3.9,6.8c3.7,1.6,7.5,3.3,11.5,4.2
		c19.1,4.2,38.4,4.3,57.7,1.6c6.6-0.9,13-3,19.3-5C101.5,66.9,103.3,64,103.1,59.8z M64.4,8.6H43.9C47.3,3.4,59.8,2.7,64.4,8.6z
		 M22.2,69.2c0-0.3-0.1-0.7-0.1-1c2.9-0.6,5.9-1.2,8.8-2c6.8-1.8,12.8-4.7,15.2-12.5c5.4,3.2,10.9,3.3,16.3,0
		c4,11.8,14.9,11.9,24.2,15C65,73.2,43.6,73.2,22.2,69.2z M40.7,28.7c-2.1,1.2-4.1,2.4-6.2,3.6c-0.2-0.3-0.4-0.5-0.6-0.8
		c2.4-1.6,4.7-3.2,7.1-4.7c-0.1-0.2-0.2-0.4-0.3-0.6c-2,1.1-4,2.3-6.6,3.7c0-2.6-0.2-4.8,0.1-7c0.1-0.8,1.4-1.9,2.2-1.9
		c11.8-0.1,23.5-0.1,35.3,0c0.8,0,2.2,1.4,2.3,2.2C74.2,27,74,30.9,74,34.8c0,1.8-1,2.4-2.7,2.3c-2.7-0.1-5.4-0.1-8.1,0
		c-1.8,0.1-2.8-0.4-3.6-2c-0.4-0.9-0.9-1.7-1.5-2.5c-2.3-3.3-6.4-3.4-8.1,0.3c-1.8,3.8-4.3,4.8-8.2,4.3c-1.7-0.2-3.5,0.1-5.2-0.1
		c-0.9-0.1-2.5-0.8-2.5-1.2c-0.1-0.9,0.5-2.2,1.3-2.8c1.7-1.4,3.7-2.5,5.6-3.7C41,29.2,40.8,28.9,40.7,28.7z M41.9,39.7
		c4.6,0.6,8.4,0,10.1-5.2c0.7-2.1,3.1-2.5,3.9-0.3c2,6.1,6.7,6,11.6,5.6c0.4,0,0.8,0.1,1.3,0.1c-1.4,6.9-8.2,13.5-14.2,13.8
		c-6,0.3-12.6-5.6-15.2-14C40.4,39.7,41.1,39.7,41.9,39.7z M100.3,61.1c0,1.2-0.8,2.8-1.8,3.4c-3.3,2.1-6.6,4.1-11,1.7
		c-2.8-1.6-6.4-1.7-9.6-2.5c-4.2-1.1-8.2-2.7-11-6.3c-2.4-3.1-2.2-4.9,0.1-8c1.4-1.9,2.6-4,3.7-6c0.9-1.7,1.3-4,3.9-4
		c0.4,0,1.1-0.5,1.2-1c1.3-3.6,4.9-7.4,2.8-10.9c-1.8-3-0.3-8-5.2-9.3c-0.5-0.1-0.5-1.8-1.1-2.5c-0.6-0.9-1.5-1.6-2.3-2.5
		c-0.2,0.3-0.5,0.6-0.7,0.9c0.3,1.2,0.7,2.5,1.1,4H38c0.3-1.3,0.7-2.7,1.2-4.6c-1.2,0.4-2.8,0.6-2.8,0.9c-0.1,4.3-6.5,5.4-4.9,10.3
		c-2.5,1.3-2.6,3.9-1.8,5.8c1.3,3.4,0.8,8.3,6,9.4c0.6,0.1,1,1.2,1.4,1.9c1.7,2.7,3.1,5.7,5.1,8.2c1.4,1.8,1.4,3.2,0.6,5
		c-2.1,4.5-6,6.7-10.4,8c-4.3,1.3-8.7,2.6-13,3.6c-1.4,0.4-3.2,0.6-4.5,0.1c-6.4-2.1-6.7-2.7-6.7-9.5c0-11,0.2-22-0.1-33
		c-0.1-4,1.4-6.3,4.9-7.2c7.5-1.9,15-4,22.7-4.9c17.2-2.1,34.5-1.6,51.5,2.2c3.4,0.8,6.8,2.1,10.1,3.4c2.3,0.9,3.4,2.7,3.4,5.3
		C100.3,35.9,100.4,48.5,100.3,61.1z"/>
	<path class="st4" d="M64.4,8.6H43.9C47.3,3.4,59.8,2.7,64.4,8.6z"/>
	<path d="M93,71.2c1,0.4,2.5,0.4,3.1,1.1c3.6,4.3,5.1,9.4,5.4,14.9c0,0.6-0.7,1.3-1.1,2c-0.5-0.6-1.4-1.1-1.4-1.7
		c-0.3-5.9-2.4-11.1-6.4-15.5C92.7,71.8,92.9,71.5,93,71.2z"/>
	<path d="M15.7,72.3c-4.1,4.3-6,9.4-6.3,15.2c0,0.6-0.8,1.2-1.3,1.8c-0.4-0.6-1.2-1.3-1.2-1.9c0.2-5.6,1.8-10.8,5.5-15.2
		c0.6-0.6,1.8-0.7,2.8-1C15.4,71.7,15.5,72,15.7,72.3z"/>
	<path class="st4" d="M69.3,14.1c0.3,1.2,0.7,2.5,1.1,4c-10.8,0-21.4,0-32.3,0c0.3-1.3,0.7-2.7,1.2-4.6c-1.2,0.4-2.8,0.6-2.8,0.9
		c-0.1,4.2-6.5,5.4-4.9,10.3c-2.5,1.3-2.6,3.9-1.8,5.8c1.3,3.4,0.8,8.3,6,9.4c0.6,0.1,1,1.2,1.4,1.9c1.7,2.7,3.1,5.7,5.1,8.2
		c1.4,1.8,1.4,3.2,0.6,5c-2.1,4.5-6,6.7-10.4,8c-4.3,1.3-8.7,2.5-13,3.6c-1.4,0.4-3.2,0.6-4.5,0.1c-6.4-2.1-6.7-2.7-6.7-9.5
		c0-11,0.2-22-0.1-33c-0.1-4,1.4-6.3,4.9-7.2c7.5-1.9,15-4,22.7-4.9c17.2-2.1,34.5-1.6,51.5,2.2c3.4,0.8,6.8,2.1,10.1,3.4
		c2.3,0.9,3.4,2.7,3.4,5.3c-0.1,12.6,0,25.3-0.1,37.9c0,1.2-0.8,2.8-1.8,3.4c-3.3,2.1-6.6,4.1-11,1.7c-2.8-1.6-6.4-1.7-9.6-2.5
		c-4.2-1.1-8.2-2.7-11-6.3c-2.4-3.1-2.2-4.9,0.1-8c1.4-1.9,2.6-4,3.7-6c0.9-1.7,1.3-4,3.9-4c0.4,0,1.1-0.5,1.2-1
		c1.3-3.6,4.9-7.4,2.8-10.9c-1.8-3-0.3-8-5.2-9.3c-0.5-0.1-0.5-1.8-1.1-2.5c-0.6-0.9-1.5-1.6-2.3-2.5C69.8,13.5,69.5,13.8,69.3,14.1
		z M82.1,41.8c0,3.9,0.1,7.8,0,11.7c0,1.7,0.3,2.8,2.1,3.5c4.1,1.6,8.2,3.4,12.3,5c0.8,0.3,1.8-0.2,2.8-0.3c-0.6-0.7-1-1.6-1.7-1.9
		c-3.5-1.6-7.2-2.9-10.7-4.6c-1-0.5-2-1.9-2-3c-0.2-6.8-0.2-13.6,0-20.4c0-1,1-2.3,1.8-2.8c3.5-1.8,7.2-3.3,10.8-5.1
		c0.8-0.4,1.1-1.5,1.7-2.2c-1,0-2.1-0.4-2.9,0c-4.1,1.7-8.1,3.5-12,5.6c-1,0.5-2,2.2-2,3.4C82,34.2,82.1,38,82.1,41.8z M26.4,42.1
		c0-4,0.1-8-0.1-12c-0.1-1.1-1-2.6-2-3.1c-3.8-2-7.8-3.7-11.8-5.4c-0.9-0.4-2,0-3.1,0.1c0.6,0.7,1.1,1.7,1.9,2.1
		c3.5,1.7,7.1,3.2,10.5,5c0.9,0.5,1.8,1.8,1.8,2.8c0.2,6.9,0.2,13.8,0,20.7c0,1-1,2.4-1.9,2.8c-3.5,1.7-7.1,3-10.7,4.6
		c-0.8,0.3-1.2,1.4-1.7,2.1c0.9,0.1,1.9,0.4,2.6,0.1c4.1-1.6,8.2-3.2,12.2-5.2c0.9-0.5,1.8-2,1.9-3.1C26.5,49.9,26.4,46,26.4,42.1z
		 M13.2,28.7c-0.2,0-0.4,0-0.5,0c0,8.8,0,17.5,0,26.3c0.2,0,0.4,0,0.5,0C13.2,46.3,13.2,37.5,13.2,28.7z M96.1,28.7
		c-0.2,0-0.4,0-0.5,0c0,8.8,0,17.5,0,26.3c0.2,0,0.4,0,0.5,0C96.1,46.2,96.1,37.5,96.1,28.7z M17.6,50.3c0.1,0,0.3,0,0.4,0
		c0-5.6,0-11.2,0-16.7c-0.1,0-0.3,0-0.4,0C17.6,39.1,17.6,44.7,17.6,50.3z M90.6,50.3c0.1,0,0.3,0,0.4,0c0-5.5,0-11.1,0-16.6
		c-0.1,0-0.3,0-0.4,0C90.6,39.2,90.6,44.8,90.6,50.3z"/>
	<path class="st4" d="M22.1,68.2c2.9-0.7,5.9-1.2,8.8-2c6.8-1.8,12.8-4.7,15.2-12.5c5.4,3.2,10.9,3.3,16.3,0
		c4,11.8,14.9,11.9,24.2,15c-21.5,4.4-42.9,4.4-64.3,0.5C22.1,68.9,22.1,68.6,22.1,68.2z"/>
	<path class="st5" d="M40.7,28.7c-2.1,1.2-4.1,2.4-6.2,3.6c-0.2-0.3-0.4-0.5-0.5-0.8c2.4-1.6,4.7-3.2,7.1-4.7
		c-0.1-0.2-0.2-0.4-0.3-0.6c-2,1.1-4,2.3-6.6,3.7c0-2.6-0.2-4.8,0.1-7c0.1-0.8,1.4-1.9,2.2-1.9c11.8-0.1,23.5-0.1,35.3,0
		c0.8,0,2.2,1.4,2.3,2.2C74.2,27,74,30.9,74,34.8c0,1.8-1,2.4-2.7,2.3c-2.7-0.1-5.4-0.1-8.1,0c-1.8,0.1-2.8-0.5-3.6-2
		c-0.4-0.9-0.9-1.7-1.5-2.5c-2.3-3.3-6.4-3.4-8.1,0.3c-1.8,3.8-4.3,4.8-8.2,4.3c-1.7-0.2-3.5,0.1-5.2-0.1c-0.9-0.1-2.5-0.8-2.5-1.2
		c-0.1-0.9,0.5-2.2,1.2-2.8c1.7-1.4,3.7-2.5,5.6-3.7C41,29.2,40.8,28.9,40.7,28.7z"/>
	<path class="st4" d="M39.4,39.7c1,0,1.8-0.1,2.5,0c4.6,0.6,8.4,0,10.1-5.2c0.7-2.1,3.1-2.5,3.9-0.3c2.1,6.1,6.7,6,11.6,5.6
		c0.4,0,0.8,0.1,1.2,0.1c-1.4,6.9-8.2,13.5-14.2,13.8C48.6,54,42,48.1,39.4,39.7z"/>
	<path d="M82.1,41.8c0-3.8-0.2-7.6,0.1-11.3c0.1-1.2,1-2.9,2-3.4c3.9-2.1,8-3.8,12-5.6c0.8-0.3,1.9,0,2.9,0c-0.6,0.8-1,1.8-1.7,2.2
		c-3.6,1.8-7.3,3.3-10.8,5.1c-0.9,0.5-1.8,1.8-1.8,2.8c-0.2,6.8-0.2,13.6,0,20.4c0,1,1.1,2.5,2,3c3.5,1.7,7.1,3,10.7,4.6
		c0.7,0.3,1.2,1.3,1.7,1.9c-0.9,0.1-2,0.6-2.8,0.3c-4.1-1.6-8.2-3.4-12.3-5c-1.8-0.7-2.2-1.8-2.1-3.5C82.2,49.5,82.1,45.6,82.1,41.8
		z"/>
	<path d="M26.4,42.1c0,3.9,0.1,7.8-0.1,11.7c-0.1,1.1-1,2.7-1.9,3.1c-4,1.9-8.1,3.6-12.2,5.2c-0.7,0.3-1.7-0.1-2.6-0.1
		c0.6-0.7,1-1.8,1.7-2.1c3.5-1.6,7.2-2.9,10.7-4.6c0.9-0.4,1.8-1.8,1.9-2.8c0.2-6.9,0.2-13.8,0-20.7c0-1-1-2.4-1.8-2.8
		c-3.4-1.8-7-3.2-10.5-5c-0.8-0.4-1.3-1.4-1.9-2.1c1,0,2.2-0.4,3.1-0.1c4,1.6,7.9,3.4,11.8,5.4c1,0.5,1.9,2,2,3.1
		C26.5,34.1,26.4,38.1,26.4,42.1z"/>
	<path d="M13.2,28.7c0,8.8,0,17.5,0,26.3c-0.2,0-0.4,0-0.5,0c0-8.8,0-17.5,0-26.3C12.8,28.7,13,28.7,13.2,28.7z"/>
	<ellipse cx="95.8" cy="41.9" rx="0.4" ry="18.6"/>
	<path d="M17.6,50.3c0-5.6,0-11.2,0-16.7c0.1,0,0.3,0,0.4,0c0,5.6,0,11.2,0,16.7C17.9,50.2,17.7,50.2,17.6,50.3z"/>
	<ellipse cx="90.8" cy="42" rx="0.3" ry="11.7"/>
</g>
</svg>
